<svg width="88" height="88" viewBox="0 0 88 88" fill="none" xmlns="http://www.w3.org/2000/svg">
<path d="M4 0.969727C2.067 0.969727 0.5 2.53673 0.5 4.46973C0.5 6.40272 2.067 7.96973 4 7.96973V0.969727ZM13.5522 4.46973L16.9305 3.55477C16.5173 2.02911 15.1329 0.969727 13.5522 0.969727V4.46973ZM29.0746 61.7832L25.6963 62.6981C26.1523 64.3816 27.7781 65.4725 29.5087 65.2561L29.0746 61.7832ZM76.8358 55.813L77.2699 59.286C78.7563 59.1002 79.9597 57.9891 80.2632 56.5221L76.8358 55.813ZM84 21.1861L87.4274 21.8953C87.6407 20.8645 87.3787 19.7924 86.714 18.9762C86.0494 18.1599 85.0526 17.6861 84 17.6861V21.1861ZM18.0796 21.1861L14.7013 22.1011L14.7013 22.1011L18.0796 21.1861ZM4 7.96973H13.5522V0.969727H4V7.96973ZM29.5087 65.2561L77.2699 59.286L76.4017 52.34L28.6405 58.3102L29.5087 65.2561ZM80.2632 56.5221L87.4274 21.8953L80.5726 20.477L73.4084 55.1039L80.2632 56.5221ZM10.1739 5.38468L14.7013 22.1011L21.4579 20.2712L16.9305 3.55477L10.1739 5.38468ZM14.7013 22.1011L25.6963 62.6981L32.4529 60.8682L21.4579 20.2712L14.7013 22.1011ZM84 17.6861H18.0796V24.6861H84V17.6861ZM40.5 77.4167C40.5 78.9355 39.2688 80.1667 37.75 80.1667V87.1667C43.1348 87.1667 47.5 82.8015 47.5 77.4167H40.5ZM37.75 80.1667C36.2312 80.1667 35 78.9355 35 77.4167H28C28 82.8015 32.3652 87.1667 37.75 87.1667V80.1667ZM35 77.4167C35 75.8979 36.2312 74.6667 37.75 74.6667V67.6667C32.3652 67.6667 28 72.0319 28 77.4167H35ZM37.75 74.6667C39.2688 74.6667 40.5 75.8979 40.5 77.4167H47.5C47.5 72.0319 43.1348 67.6667 37.75 67.6667V74.6667ZM73.8333 77.4167C73.8333 78.9355 72.6021 80.1667 71.0833 80.1667V87.1667C76.4681 87.1667 80.8333 82.8015 80.8333 77.4167H73.8333ZM71.0833 80.1667C69.5645 80.1667 68.3333 78.9355 68.3333 77.4167H61.3333C61.3333 82.8015 65.6986 87.1667 71.0833 87.1667V80.1667ZM68.3333 77.4167C68.3333 75.8979 69.5645 74.6667 71.0833 74.6667V67.6667C65.6986 67.6667 61.3333 72.0319 61.3333 77.4167H68.3333ZM71.0833 74.6667C72.6021 74.6667 73.8333 75.8979 73.8333 77.4167H80.8333C80.8333 72.0319 76.4681 67.6667 71.0833 67.6667V74.6667Z" fill="black"/>
</svg>
