<svg width="88" height="88" viewBox="0 0 88 88" fill="none" xmlns="http://www.w3.org/2000/svg">
<path d="M68.002 12C68.002 16.4183 71.5837 20 76.002 20C80.4203 20 84.002 16.4183 84.002 12C84.002 7.58173 80.4203 4 76.002 4C71.5837 4 68.002 7.58173 68.002 12ZM68.002 12H21.5M68.002 76C68.002 80.4183 71.5837 84 76.002 84C80.4203 84 84.002 80.4183 84.002 76C84.002 71.5817 80.4203 68 76.002 68C71.5837 68 68.002 71.5817 68.002 76ZM68.002 76H45.002C42.7928 76 41.002 74.2091 41.002 72V16M66.502 44H41.502M84.002 44C84.002 48.4183 80.4203 52 76.002 52C71.5837 52 68.002 48.4183 68.002 44C68.002 39.5817 71.5837 36 76.002 36C80.4203 36 84.002 39.5817 84.002 44ZM20 12C20 16.4183 16.4183 20 12 20C7.58172 20 4 16.4183 4 12C4 7.58172 7.58172 4 12 4C16.4183 4 20 7.58172 20 12Z" stroke="black" stroke-width="7" stroke-linecap="round"/>
</svg>
