<svg width="129" height="89" viewBox="0 0 129 89" fill="none" xmlns="http://www.w3.org/2000/svg">
<path d="M24.4553 70.0666C26.0362 71.6097 28.5686 71.5791 30.1117 69.9982C31.6548 68.4173 31.6242 65.8849 30.0433 64.3418L24.4553 70.0666ZM4.75 45.2427L1.95599 42.3802C1.18482 43.133 0.75 44.165 0.75 45.2427C0.75 46.3203 1.18482 47.3524 1.95599 48.1051L4.75 45.2427ZM30.0433 26.1436C31.6242 24.6005 31.6548 22.068 30.1117 20.4871C28.5687 18.9063 26.0362 18.8756 24.4553 20.4187L30.0433 26.1436ZM105.045 20.4187C103.464 18.8756 100.931 18.9063 99.3883 20.4871C97.8452 22.068 97.8758 24.6005 99.4567 26.1436L105.045 20.4187ZM124.75 45.2427L127.544 48.1051C128.315 47.3524 128.75 46.3203 128.75 45.2427C128.75 44.165 128.315 43.133 127.544 42.3802L124.75 45.2427ZM99.4567 64.3418C97.8758 65.8849 97.8452 68.4173 99.3883 69.9982C100.931 71.5791 103.464 71.6097 105.045 70.0666L99.4567 64.3418ZM50.1672 83.4462C49.5851 85.5773 50.8409 87.7767 52.972 88.3587C55.1031 88.9407 57.3025 87.6849 57.8845 85.5538L50.1672 83.4462ZM64.7482 45.2391L60.8922 44.1754L60.8895 44.1853L64.7482 45.2391ZM79.8427 5.56373C80.4301 3.43414 79.18 1.23151 77.0504 0.644033C74.9208 0.0565518 72.7182 1.30668 72.1307 3.43627L79.8427 5.56373ZM30.0433 64.3418L7.54401 42.3802L1.95599 48.1051L24.4553 70.0666L30.0433 64.3418ZM7.54401 48.1051L30.0433 26.1436L24.4553 20.4187L1.95599 42.3802L7.54401 48.1051ZM99.4567 26.1436L121.956 48.1051L127.544 42.3802L105.045 20.4187L99.4567 26.1436ZM121.956 42.3802L99.4567 64.3418L105.045 70.0666L127.544 48.1051L121.956 42.3802ZM57.8845 85.5538L68.6069 46.2929L60.8895 44.1853L50.1672 83.4462L57.8845 85.5538ZM68.6041 46.3028L79.8427 5.56373L72.1307 3.43627L60.8922 44.1754L68.6041 46.3028Z" fill="black"/>
</svg>
